<svg xmlns="http://www.w3.org/2000/svg" width="20.561" height="25.904" viewBox="0 0 20.561 25.904">
    <defs>
        <style>
            .cls-1{fill:none;stroke:#b9b9b9}
        </style>
    </defs>
    <g id="bell" transform="translate(.521 .5)">
        <g id="Group_65" data-name="Group 65">
            <g id="Group_64" data-name="Group 64">
                <path id="Path_56" d="M175.207 404.514v.02a2.953 2.953 0 1 0 5.906 0v-.02z" class="cls-1" data-name="Path 56" transform="translate(-168.495 -382.583)"/>
                <path id="Path_57" d="M70.582 18.241l-2.657-3.9V9.466a6.771 6.771 0 0 0-5.442-6.639v-1.5a1.326 1.326 0 1 0-2.652 0v1.5a6.772 6.772 0 0 0-5.442 6.639v4.87l-2.666 3.9a1.342 1.342 0 0 0 1.1 2.1h16.648a1.342 1.342 0 0 0 1.1-2.1z" class="cls-1" data-name="Path 57" transform="translate(-51.488)"/>
            </g>
        </g>
    </g>
</svg>
