<svg height="512pt" viewBox="0 0 512 512.00002" width="512pt" xmlns="http://www.w3.org/2000/svg" xmlns:xlink="http://www.w3.org/1999/xlink"><linearGradient id="a"><stop offset=".004" stop-color="#009fff"/><stop offset=".093" stop-color="#099bf8"/><stop offset=".242" stop-color="#238ee4"/><stop offset=".431" stop-color="#4c7bc5"/><stop offset=".654" stop-color="#865f99"/><stop offset=".902" stop-color="#cf3d61"/><stop offset=".995" stop-color="#ec2f4b"/></linearGradient><linearGradient id="b" gradientTransform="matrix(.614557 0 0 -.614557 -.000758 518.686314)" gradientUnits="userSpaceOnUse" x1="-22.4124" x2="859.5433" xlink:href="#a" y1="712.0886" y2="712.0886"/><linearGradient id="c" gradientTransform="matrix(.614557 0 0 -.614557 -.000758 518.686314)" gradientUnits="userSpaceOnUse" x1="-22.4124" x2="859.5433" xlink:href="#a" y1="691.262" y2="691.262"/><linearGradient id="d" gradientTransform="matrix(.614557 0 0 -.614557 -.000758 518.686314)" gradientUnits="userSpaceOnUse" x1="-22.4124" x2="859.5433" xlink:href="#a" y1="705.1473" y2="705.1473"/><linearGradient id="e" gradientTransform="matrix(.614557 0 0 -.614557 -.000758 518.686314)" gradientUnits="userSpaceOnUse" x1="-22.4124" x2="859.5433" xlink:href="#a" y1="719.0327" y2="719.0327"/><linearGradient id="f" gradientTransform="matrix(.614557 0 0 -.614557 -.000758 518.686314)" gradientUnits="userSpaceOnUse" x1="-22.4124" x2="859.5433" xlink:href="#a" y1="246.9308" y2="246.9308"/><linearGradient id="g" gradientTransform="matrix(.614557 0 0 -.614557 -.000758 518.686314)" gradientUnits="userSpaceOnUse" x1="-22.4124" x2="859.5433" xlink:href="#a" y1="707.3809" y2="707.3809"/><linearGradient id="h" gradientTransform="matrix(.614557 0 0 -.614557 -.000693 518.685945)" gradientUnits="userSpaceOnUse" x1="-22.4111" x2="859.5447" xlink:href="#a" y1="692.6603" y2="692.6603"/><linearGradient id="i" gradientTransform="matrix(.614557 0 0 -.614557 -.000799 518.686314)" gradientUnits="userSpaceOnUse" x1="-22.4133" x2="859.5425" xlink:href="#a" y1="741.746" y2="741.746"/><linearGradient id="j" gradientTransform="matrix(.614557 0 0 -.614557 -.000758 518.686314)" gradientUnits="userSpaceOnUse" x1="-22.4124" x2="859.5433" xlink:href="#a" y1="746.8034" y2="746.8034"/><linearGradient id="k" gradientTransform="matrix(.614557 0 0 -.614557 -.000758 518.686314)" gradientUnits="userSpaceOnUse" x1="-22.4124" x2="859.5433" xlink:href="#a" y1="566.2948" y2="566.2948"/><linearGradient id="l" gradientTransform="matrix(.614557 0 0 -.614557 -.000758 518.686314)" gradientUnits="userSpaceOnUse" x1="-22.4124" x2="859.5433" xlink:href="#a" y1="441.3842" y2="441.3842"/><linearGradient id="m" gradientTransform="matrix(.614557 0 0 -.614557 -.000758 518.686314)" gradientUnits="userSpaceOnUse" x1="-22.4124" x2="859.5433" xlink:href="#a" y1="413.555" y2="413.555"/><linearGradient id="n" gradientTransform="matrix(.614557 0 0 -.614557 -.000758 518.686314)" gradientUnits="userSpaceOnUse" x1="-22.4124" x2="859.5433" xlink:href="#a" y1="358.0136" y2="358.0136"/><linearGradient id="o" gradientTransform="matrix(.614557 0 0 -.614557 -.000758 518.686314)" gradientUnits="userSpaceOnUse" x1="-22.4124" x2="859.5433" xlink:href="#a" y1="420.4963" y2="420.4963"/><path d="m441.230469 2.5c-3.332031-3.332031-8.734375-3.332031-12.066407 0l-76.800781 76.800781c-1.597656 1.597657-2.5 3.769531-2.5 6.03125v68.269531c0 4.710938 3.824219 8.53125 8.535157 8.53125h68.265624c2.265626 0 4.433594-.898437 6.035157-2.5l76.796875-76.800781c3.332031-3.332031 3.332031-8.734375 0-12.066406zm-18.097657 142.566406h-56.203124v-56.199218l68.269531-68.269532 56.199219 56.203125zm0 0" fill="url(#b)"/><path d="m392.53125 85.332031h17.066406v17.070313h-17.066406zm0 0" fill="url(#c)"/><path d="m418.132812 59.734375h17.066407v51.199219h-17.066407zm0 0" fill="url(#d)"/><path d="m443.730469 68.265625h17.066406v17.066406h-17.066406zm0 0" fill="url(#e)"/><path d="m256 221.867188c-56.53125.058593-102.339844 45.871093-102.402344 102.398437v34.132813h-93.867187c-4.710938 0-8.53125 3.820312-8.53125 8.535156v145.066406h17.066406v-136.535156h85.332031v18.28125c-18.25 4.710937-29.226562 23.328125-24.515625 41.582031 4.714844 18.253906 23.332031 29.226563 41.582031 24.515625 18.253907-4.714844 29.230469-23.332031 24.519532-41.582031-3.105469-12.023438-12.496094-21.414063-24.519532-24.515625v-18.28125h170.667969v18.28125c-18.253906 4.710937-29.226562 23.328125-24.515625 41.582031 4.714844 18.253906 23.328125 29.226563 41.582032 24.515625 18.253906-4.714844 29.230468-23.332031 24.515624-41.582031-3.101562-12.023438-12.492187-21.414063-24.515624-24.515625v-18.28125h50.953124v136.535156h17.3125v-136.535156h34.132813v136.535156h17.070313v-145.066406c0-4.714844-3.824219-8.535156-8.535157-8.535156h-110.933593v-34.132813c-.0625-56.527344-45.871094-102.335937-102.398438-102.398437zm-76.800781 204.800781c0 9.425781-7.640625 17.066406-17.066407 17.066406-9.425781 0-17.066406-7.640625-17.066406-17.066406s7.640625-17.066407 17.066406-17.066407c9.425782 0 17.066407 7.640626 17.066407 17.066407zm68.265625-100.8125c-12.6875 4.40625-19.402344 18.261719-14.996094 30.949219.1875.539062.394531 1.070312.617188 1.59375h-28.289063c.046875-24.957032 18.0625-46.25 42.667969-50.429688zm8.449218 32.542969-4.226562-2.8125c-3.570312-2.394532-4.527344-7.226563-2.132812-10.796876.273437-.414062.589843-.800781.941406-1.152343 3.039062-3.035157 7.964844-3.035157 11.007812 0l14.0625 14.0625 12.066406-12.097657-14.0625-14.0625c-2.5625-2.535156-5.648437-4.472656-9.039062-5.683593v-17.921875c24.617188 4.183594 42.636719 25.496094 42.667969 50.46875h-51.285157zm68.351563 0c0-37.699219-30.5625-68.265626-68.265625-68.265626s-68.269531 30.5625-68.269531 68.265626h-17.066407v-34.132813c0-47.128906 38.207032-85.332031 85.335938-85.332031 47.125 0 85.332031 38.203125 85.332031 85.332031v34.132813zm42.667969 68.269531c0 9.425781-7.640625 17.066406-17.070313 17.066406-9.421875 0-17.066406-7.640625-17.066406-17.066406s7.640625-17.066407 17.066406-17.066407 17.070313 7.640626 17.070313 17.066407zm0 0" fill="url(#f)"/><path d="m105.070312 2.5c-1.601562-1.601562-3.769531-2.5-6.035156-2.5h-36.199218c-2.261719 0-4.433594.898438-6.03125 2.5l-54.304688 54.304688c-3.332031 3.332031-3.332031 8.734374 0 12.066406l96.535156 96.546875c3.332032 3.335937 8.734375 3.339843 12.070313.007812 0-.003906.003906-.003906.003906-.007812l72.40625-72.40625c3.332031-3.332031 3.332031-8.734375 0-12.066407zm0 144.820312-84.480468-84.480468 45.78125-45.773438h29.132812l69.914063 69.90625zm0 0" fill="url(#g)"/><path d="m86.976562 105.074219 36.203126-36.203125 12.070312 12.070312-36.207031 36.199219zm0 0" fill="url(#h)"/><path d="m56.804688 74.910156 36.203124-36.203125 12.070313 12.066407-36.203125 36.203124zm0 0" fill="url(#i)"/><path d="m306.730469 0h-67.328125c-14.390625.0195312-26.050782 11.679688-26.070313 26.070312v67.328126c.019531 14.386718 11.679688 26.050781 26.070313 26.066406h67.328125c14.386719-.015625 26.046875-11.679688 26.066406-26.066406v-67.328126c-.015625-14.390624-11.675781-26.0507808-26.066406-26.070312zm9 93.398438c-.003907 4.96875-4.03125 8.996093-9 9h-25.132813v-17.066407h17.066406v-17.066406h-17.066406v-9.070313c.003906-4.414062 3.582032-7.992187 7.996094-7.996093h9.070312v-17.066407h-9.070312c-13.835938.015626-25.046875 11.226563-25.0625 25.0625v43.203126h-25.128906c-4.96875-.003907-9-4.03125-9.003906-9v-67.328126c.003906-4.972656 4.035156-9 9.003906-9.003906h67.328125c4.96875.003906 8.996093 4.03125 9 9.003906zm0 0" fill="url(#j)"/><path d="m175.171875 129.007812c-2.777344 1.484376-4.507813 4.378907-4.507813 7.527344v68.265625c0 4.710938 3.820313 8.535157 8.53125 8.535157 1.6875 0 3.335938-.5 4.738282-1.4375l51.199218-34.132813c3.921876-2.613281 4.980469-7.910156 2.367188-11.832031-.625-.9375-1.429688-1.742188-2.367188-2.367188l-51.199218-34.132812c-2.617188-1.75-5.988282-1.914063-8.761719-.425782zm12.558594 23.464844 27.308593 18.195313-27.308593 18.191406zm0 0" fill="url(#k)"/><path d="m8.53125 273.066406v34.132813c0 4.714843 3.820312 8.535156 8.535156 8.535156h68.265625c4.710938 0 8.53125-3.824219 8.53125-8.535156v-34.132813c-.003906-14.1875-7.0625-27.445312-18.832031-35.371094 13.496094-13.164062 13.765625-34.773437.601562-48.265624-13.164062-13.496094-34.773437-13.765626-48.269531-.601563-13.492187 13.160156-13.761719 34.773437-.597656 48.265625.195313.203125.394531.402344.597656.601562-11.765625 7.925782-18.824219 21.183594-18.832031 35.371094zm42.667969-76.800781c9.425781 0 17.066406 7.640625 17.066406 17.066406s-7.640625 17.066407-17.066406 17.066407-17.066407-7.640626-17.066407-17.066407 7.640626-17.066406 17.066407-17.066406zm-25.601563 76.800781c0-14.136718 11.460938-25.601562 25.601563-25.601562 14.136719 0 25.597656 11.464844 25.597656 25.601562v25.601563h-51.199219zm0 0" fill="url(#l)"/><path d="m418.132812 256h51.199219v17.066406h-51.199219zm0 0" fill="url(#m)"/><path d="m418.132812 290.132812h51.199219v17.066407h-51.199219zm0 0" fill="url(#n)"/><path d="m494.769531 223.324219.164063-35.546875c.019531-4.714844-3.78125-8.554688-8.496094-8.574219-2.273438-.011719-4.460938.886719-6.074219 2.496094l-40.164062 40.167969h-38.945313c-14.238281.011718-25.773437 11.550781-25.789062 25.785156v67.894531c.015625 14.234375 11.550781 25.773437 25.789062 25.785156h84.957032c14.234374-.011719 25.773437-11.550781 25.785156-25.785156v-67.890625c-.011719-10.941406-6.914063-20.683594-17.226563-24.332031zm.164063 92.222656c-.007813 4.8125-3.910156 8.714844-8.722656 8.71875h-84.957032c-4.816406-.003906-8.71875-3.90625-8.722656-8.71875v-67.890625c.003906-4.816406 3.90625-8.71875 8.722656-8.722656h42.476563c2.261719 0 4.433593-.898438 6.035156-2.5l28.003906-28.007813-.09375 21.972657c0 4.714843 3.820313 8.535156 8.535157 8.535156 4.8125.003906 8.714843 3.90625 8.71875 8.722656v67.890625zm0 0" fill="url(#o)"/></svg>