<?xml version="1.0"?>
<svg xmlns="http://www.w3.org/2000/svg" xmlns:xlink="http://www.w3.org/1999/xlink" version="1.1" id="Capa_1" x="0px" y="0px" width="512px" height="512px" viewBox="0 0 503.584 503.584" style="enable-background:new 0 0 503.584 503.584;" xml:space="preserve" class=""><g><g>
	<g>
		<path d="M18.987,177.508v326.076h465.609V177.508H18.987z M173.771,482.049H53.591v-21.322h120.181L173.771,482.049    L173.771,482.049z M384.896,487.541h-33.6v-33.598h33.6V487.541z M441.755,487.541h-33.6v-33.598h33.6V487.541z M448.056,430.111    H55.529V215.918h392.524v214.193H448.056z" data-original="#000000" class="active-path" data-old_color="#AF9D9D" fill="#B19E9E"/>
		<path d="M160.688,168.801h182.209c-1.777-14.844-14.391-26.355-29.713-26.355H190.398    C175.079,142.445,162.466,153.957,160.688,168.801z" data-original="#000000" class="active-path" data-old_color="#AF9D9D" fill="#B19E9E"/>
		<path d="M338.052,236.756H165.534v172.519h172.518V236.756z M275.237,327.648l-0.074-13.523l-0.842,0.234    c-29.728,8.266-53.478,29.291-63.527,56.248l-1.581,4.24H179.9l2.727-8.509c6.105-19.051,16.981-36.248,31.45-49.733    c16.445-15.328,37.131-26.09,59.826-31.119l0.543-0.121l0.038-14.184l49.202,27.016L275.237,327.648z" data-original="#000000" class="active-path" data-old_color="#AF9D9D" fill="#B19E9E"/>
		<path d="M205.958,113.848l15.119,15.119c7.896-7.82,18.75-12.662,30.716-12.662c11.966,0,22.819,4.842,30.716,12.662    l15.119-15.119c-11.771-11.693-27.974-18.934-45.835-18.934S217.728,102.154,205.958,113.848z" data-original="#000000" class="active-path" data-old_color="#AF9D9D" fill="#B19E9E"/>
		<path d="M251.792,21.389c38.134,0,72.718,15.484,97.8,40.494l15.172-15.172C334.565,16.59,294.454,0,251.792,0    C209.13,0,169.021,16.59,138.82,46.711l15.171,15.172C179.074,36.873,213.659,21.389,251.792,21.389z" data-original="#000000" class="active-path" data-old_color="#AF9D9D" fill="#B19E9E"/>
		<path d="M333.216,78.258c-20.887-20.813-49.678-33.697-81.423-33.697c-31.746,0-60.537,12.885-81.424,33.697l15.117,15.119    c17.014-16.939,40.458-27.428,66.307-27.428s49.292,10.488,66.306,27.428L333.216,78.258z" data-original="#000000" class="active-path" data-old_color="#AF9D9D" fill="#B19E9E"/>
	</g>
</g></g> </svg>
