<?xml version="1.0"?>
<svg xmlns="http://www.w3.org/2000/svg" xmlns:xlink="http://www.w3.org/1999/xlink" version="1.1" id="Layer_1" x="0px" y="0px" viewBox="0 0 508 508" style="enable-background:new 0 0 508 508;" xml:space="preserve" width="512px" height="512px" class=""><g><circle style="fill:#FFFFFF" cx="254" cy="254" r="254" data-original="#324A5E" class="" data-old_color="#ffffff"/><path style="fill:#FFFFFF" d="M72,431.2c46,47.2,110.8,76.8,182,76.8s136-29.6,182-76.8H72z" data-original="#2B3B4E" class="" data-old_color="#ffffff"/><rect x="244.482" y="91.988" transform="matrix(-0.4659 -0.8848 0.8848 -0.4659 254.0921 395.7448)" style="fill:#808393" width="4" height="58.398" data-original="#CED5E0" class="" data-old_color="#838696"/><g>
	
		<rect x="232.836" y="119.192" transform="matrix(-0.8847 -0.4662 0.4662 -0.8847 437.3582 350.5677)" style="fill:#808393" width="58.401" height="4" data-original="#CED5E0" class="" data-old_color="#838696"/>
	<path style="fill:#808393" d="M155.6,414.4l-0.8-4L332,379.2l-138-58.8c-0.8-0.4-1.2-0.8-1.2-1.6c0-0.8,0.4-1.6,0.8-2l90.4-60   l-64.4-41.6c-0.4-0.4-0.8-1.2-0.8-1.6c0-0.8,0.4-1.2,0.8-1.6l64.4-42l-64.4-33.2l2-3.6l67.6,34.8c0.8,0.4,1.2,1.2,1.2,1.6   c0,0.8-0.4,1.6-0.8,2l-65.2,42l64.8,41.2c0.4,0.4,0.8,1.2,0.8,1.6c0,0.8-0.4,1.2-0.8,1.6l-90,60l141.2,60c0.8,0.4,1.2,1.2,1.2,2   s-0.8,1.6-1.6,2L155.6,414.4z" data-original="#CED5E0" class="" data-old_color="#838696"/>
	<path style="fill:#808393" d="M352.8,414.4l-184-32.8c-0.8,0-1.6-0.8-1.6-2c0-0.8,0.4-1.6,1.2-2L309.6,318l-90-59.6   c-0.4-0.4-0.8-1.2-0.8-1.6c0-0.8,0.4-1.2,0.8-1.6l64.8-41.2l-64.8-42.8c-0.8-0.4-0.8-1.2-0.8-2s0.4-1.6,1.2-1.6l67.6-34.8l2,3.6   L224.8,170l64.4,42c0.4,0.4,0.8,1.2,0.8,1.6c0,0.8-0.4,1.2-0.8,1.6l-64.4,41.6l90.4,60c0.8,0.4,0.8,1.2,0.8,2s-0.4,1.6-1.2,1.6   l-138.4,58.4L353.6,410L352.8,414.4z" data-original="#CED5E0" class="" data-old_color="#838696"/>
</g><path style="fill:#818A8C" d="M356.4,432H350v-18.8l-64.8-155.6c0-0.4-0.4-0.8-0.4-1.2V135.6L254.4,82l-30.8,53.6v120.8  c0,0.4,0,0.8-0.4,1.2l-64.8,155.2v18.8H152V412c0-0.4,0-0.8,0.4-1.2l64.8-155.2V134.4c0-0.4,0-1.2,0.4-1.6l34-58.8  c0.4-0.8,1.6-1.6,2.8-1.6l0,0c1.2,0,2,0.8,2.8,1.6l33.6,58.8c0.4,0.4,0.4,1.2,0.4,1.6v121.2l65.2,155.2c0,0.4,0.4,0.8,0.4,1.2v20  H356.4z" data-original="#E6E9EE" class="active-path" data-old_color="#828B8D"/><g>
	<rect x="220.4" y="131.6" style="fill:#818A8C" width="67.6" height="6.4" data-original="#E6E9EE" class="active-path" data-old_color="#828B8D"/>
	<rect x="220.4" y="254.8" style="fill:#818A8C" width="67.6" height="6.4" data-original="#E6E9EE" class="active-path" data-old_color="#828B8D"/>
	<path style="fill:#818A8C" d="M288,197.2c-0.8,0-1.6-0.4-2.4-0.8c-1.2-0.8-2-2-2-3.2V150c0-2.4,2-4,4-4H390c2,0,3.6,1.2,4,3.2   s-0.8,3.6-2.4,4.4l-102,43.2C289.2,196.8,288.4,197.2,288,197.2z M292,154v33.2l78-33.2H292z" data-original="#E6E9EE" class="active-path" data-old_color="#828B8D"/>
	<path style="fill:#818A8C" d="M220,197.2c-0.4,0-1.2,0-1.6-0.4l-102-43.2c-1.6-0.8-2.8-2.8-2.4-4.4c0.4-2,2-3.2,4-3.2h102   c2.4,0,4,2,4,4v43.2c0,1.2-0.8,2.8-2,3.2C221.6,196.8,220.8,197.2,220,197.2z M138,154l78,33.2V154H138z" data-original="#E6E9EE" class="active-path" data-old_color="#828B8D"/>
	<path style="fill:#818A8C" d="M288,240.4c-0.8,0-1.6-0.4-2.4-0.8c-1.2-0.8-2-2-2-3.2v-43.2c0-2.4,2-4,4-4H390c2,0,3.6,1.2,4,3.2   s-0.8,3.6-2.4,4.4l-102,43.2C289.2,240,288.4,240.4,288,240.4z M292,197.2V230l78-32.8H292z" data-original="#E6E9EE" class="active-path" data-old_color="#828B8D"/>
	<path style="fill:#818A8C" d="M220,240.4c-0.4,0-1.2,0-1.6-0.4l-102-43.2c-1.6-0.8-2.4-2.8-2.4-4.4c0.4-2,2-3.2,4-3.2h102   c2.4,0,4,2,4,4v43.2c0,1.2-0.8,2.8-2,3.2C221.6,240,220.8,240.4,220,240.4z M138,197.2l78,32.8v-33.2h-78V197.2z" data-original="#E6E9EE" class="active-path" data-old_color="#828B8D"/>
</g></g> </svg>
