<?xml version="1.0"?>
<svg xmlns="http://www.w3.org/2000/svg" xmlns:xlink="http://www.w3.org/1999/xlink" version="1.1" id="Capa_1" x="0px" y="0px" viewBox="0 0 480 480" style="enable-background:new 0 0 480 480;" xml:space="preserve" width="512px" height="512px"><g><path style="fill:#00AEEF;" d="M432,312H304c-8.826,0.026-15.974,7.174-16,16v128c0.026,8.826,7.174,15.974,16,16h128  c8.826-0.026,15.974-7.174,16-16V328C447.974,319.174,440.826,312.026,432,312z M424,408h-40v40h-32v-40h-40v-32h40v-40h32v40h40  V408z" data-original="#00AEEF"/><path style="fill:#D80027;" d="M384,336h-32v40h-40v32h40v40h32v-40h40v-32h-40V336z" data-original="#D80027"/><g>
	<path style="fill:#726658;" d="M368,88v224h32V56h-80v32H368z" data-original="#726658"/>
	<path style="fill:#726658;" d="M288,456v-16H64V88h48V56H32v416h272C295.174,471.974,288.026,464.826,288,456z" data-original="#726658"/>
</g><path style="fill:#FFF7D8;" d="M320,88v16H112V88H64v352h224v-32v-80c0.026-8.826,7.174-15.974,16-16h64V88H320z M216,128v24V128z" data-original="#FFF7D8"/><path style="fill:#C49A6C;" d="M112,104h208V56c-0.026-8.826-7.174-15.974-16-16h-48c0.022-17.651-14.269-31.978-31.92-32  c-0.027,0-0.053,0-0.08,0h-16c-17.673,0-32,14.327-32,32h-48c-8.826,0.026-15.974,7.174-16,16V104z M216,48c8.837,0,16,7.163,16,16  s-7.163,16-16,16c-8.837,0-16-7.163-16-16C200.026,55.174,207.174,48.026,216,48z" data-original="#C49A6C"/><circle style="fill:#E6E7E8;" cx="216" cy="64" r="16" data-original="#E6E7E8"/><g>
	<path style="fill:#231F20" d="M208,176h16v-16h16v-16h-16v-16h-16v16h-16v16h16V176z" data-original="#231F20" class="active-path"/>
	<path style="fill:#231F20" d="M104,208h112c4.418,0,8-3.582,8-8s-3.582-8-8-8H104c-4.418,0-8,3.582-8,8S99.582,208,104,208z" data-original="#231F20" class="active-path"/>
	<path style="fill:#231F20" d="M248,208h80c4.418,0,8-3.582,8-8s-3.582-8-8-8h-80c-4.418,0-8,3.582-8,8S243.582,208,248,208z" data-original="#231F20" class="active-path"/>
	<path style="fill:#231F20" d="M104,240h80c4.418,0,8-3.582,8-8s-3.582-8-8-8h-80c-4.418,0-8,3.582-8,8S99.582,240,104,240z" data-original="#231F20" class="active-path"/>
	<path style="fill:#231F20" d="M328,224H216c-4.418,0-8,3.582-8,8s3.582,8,8,8h112c4.418,0,8-3.582,8-8S332.418,224,328,224z" data-original="#231F20" class="active-path"/>
	<path style="fill:#231F20" d="M104,272h56c4.418,0,8-3.582,8-8s-3.582-8-8-8h-56c-4.418,0-8,3.582-8,8S99.582,272,104,272z" data-original="#231F20" class="active-path"/>
	<path style="fill:#231F20" d="M160,320h-56c-4.418,0-8,3.582-8,8s3.582,8,8,8h56c4.418,0,8-3.582,8-8S164.418,320,160,320z" data-original="#231F20" class="active-path"/>
	<path style="fill:#231F20" d="M336,264c0-4.418-3.582-8-8-8H192c-4.418,0-8,3.582-8,8s3.582,8,8,8h136   C332.418,272,336,268.418,336,264z" data-original="#231F20" class="active-path"/>
	<path style="fill:#231F20" d="M104,304h96c4.418,0,8-3.582,8-8s-3.582-8-8-8h-96c-4.418,0-8,3.582-8,8S99.582,304,104,304z" data-original="#231F20" class="active-path"/>
	<path style="fill:#231F20" d="M256,320h-64c-4.418,0-8,3.582-8,8s3.582,8,8,8h64c4.418,0,8-3.582,8-8S260.418,320,256,320z" data-original="#231F20" class="active-path"/>
	<path style="fill:#231F20" d="M272,288h-40c-4.418,0-8,3.582-8,8s3.582,8,8,8h40c4.418,0,8-3.582,8-8S276.418,288,272,288z" data-original="#231F20" class="active-path"/>
	<path style="fill:#231F20" d="M200,400h-16c-4.418,0-8,3.582-8,8s3.582,8,8,8h16c4.418,0,8-3.582,8-8S204.418,400,200,400z" data-original="#231F20" class="active-path"/>
	<path style="fill:#231F20" d="M432,304h-24V56c0-4.418-3.582-8-8-8h-73.472C323.15,38.445,314.134,32.042,304,32h-40.8   C259.418,13.361,243.019-0.026,224,0h-16c-19.002,0.021-35.375,13.387-39.2,32H128c-10.134,0.042-19.15,6.445-22.528,16H32   c-4.418,0-8,3.582-8,8v416c0,4.418,3.582,8,8,8h400c13.255,0,24-10.745,24-24V328C456,314.745,445.255,304,432,304z M392,304h-16   V88c0-4.418-3.582-8-8-8h-40V64h64V304z M280,328v72h-56c-4.418,0-8,3.582-8,8s3.582,8,8,8h56v16H72V96h32v8c0,4.418,3.582,8,8,8   h208c4.418,0,8-3.582,8-8v-8h32v208h-56C290.745,304,280,314.745,280,328z M128,48h48c4.418,0,8-3.582,8-8   c0-13.255,10.745-24,24-24h16c13.228-0.027,23.973,10.676,24,23.904c0,0.032,0,0.064,0,0.096c0,4.418,3.582,8,8,8h48   c4.418,0,8,3.582,8,8v40H120V56C120,51.582,123.582,48,128,48z M40,464V64h64v16H64c-4.418,0-8,3.582-8,8v352c0,4.418,3.582,8,8,8   h216v8c0.009,1.512,0.162,3.02,0.456,4.504c0.088,0.48,0.248,0.928,0.368,1.4c0.176,0.704,0.304,1.424,0.544,2.096H40z M440,456   c0,4.418-3.582,8-8,8H304c-4.418,0-8-3.582-8-8V328c0-4.418,3.582-8,8-8h128c4.418,0,8,3.582,8,8V456z" data-original="#231F20" class="active-path"/>
	<path style="fill:#231F20" d="M424,368h-32v-32c0-4.418-3.582-8-8-8h-32c-4.418,0-8,3.582-8,8v32h-32c-4.418,0-8,3.582-8,8v32   c0,4.418,3.582,8,8,8h32v32c0,4.418,3.582,8,8,8h32c4.418,0,8-3.582,8-8v-32h32c4.418,0,8-3.582,8-8v-32   C432,371.582,428.418,368,424,368z M416,400h-32c-4.418,0-8,3.582-8,8v32h-16v-32c0-4.418-3.582-8-8-8h-32v-16h32   c4.418,0,8-3.582,8-8v-32h16v32c0,4.418,3.582,8,8,8h32V400z" data-original="#231F20" class="active-path"/>
	<path style="fill:#231F20" d="M216,88c13.255,0,24-10.745,24-24s-10.745-24-24-24c-13.255,0-24,10.745-24,24S202.745,88,216,88z    M216,56c4.418,0,8,3.582,8,8s-3.582,8-8,8s-8-3.582-8-8S211.582,56,216,56z" data-original="#231F20" class="active-path"/>
</g></g> </svg>
