<svg xmlns="http://www.w3.org/2000/svg" width="91.205" height="90.093" viewBox="0 0 91.205 90.093">
    <defs>
        <style>
            .cls-1,.cls-2{fill:none}.cls-1{clip-rule:evenodd}.cls-3{clip-path:url(#clip-path)}.cls-4{clip-path:url(#clip-path-2)}.cls-5{fill:#29abe1}.cls-6{clip-path:url(#clip-path-3)}.cls-7{fill:#fff}.cls-8{clip-path:url(#clip-path-5)}.cls-9{clip-path:url(#clip-path-7)}.cls-10{clip-path:url(#clip-path-9)}.cls-11{clip-path:url(#clip-path-10)}.cls-12{clip-path:url(#clip-path-11)}.cls-13{clip-path:url(#clip-path-12)}.cls-14{clip-path:url(#clip-path-14)}.cls-15{clip-path:url(#clip-path-16)}.cls-16{clip-path:url(#clip-path-18)}.cls-17{clip-path:url(#clip-path-20)}.cls-18{clip-path:url(#clip-path-22)}.cls-19{fill:#fac73a}.cls-20{clip-path:url(#clip-path-24)}.cls-21{clip-path:url(#clip-path-26)}.cls-22{clip-path:url(#clip-path-28)}.cls-23{clip-path:url(#clip-path-30)}.cls-24{clip-path:url(#clip-path-32)}.cls-25{clip-path:url(#clip-path-34)}.cls-26{clip-path:url(#clip-path-36)}.cls-27{fill:#21b573}.cls-28{clip-path:url(#clip-path-38)}
        </style>
        <clipPath id="clip-path">
            <path id="Path_106" d="M138.531-911.178c0 23.649-18.922 42.822-42.266 42.822S54-887.529 54-911.178 72.924-954 96.266-954s42.266 19.171 42.266 42.822" class="cls-1" data-name="Path 106" transform="translate(-54 954)"/>
        </clipPath>
        <clipPath id="clip-path-2">
            <path id="Path_105" d="M0 109h1868.589V-971H0z" class="cls-2" data-name="Path 105" transform="translate(0 971)"/>
        </clipPath>
        <clipPath id="clip-path-3">
            <path id="Path_109" d="M92.733-880.836a48.529 48.529 0 0 0 33.2-12.8V-932h-7.946A30.841 30.841 0 0 1 87-901.3v20.132a50.811 50.811 0 0 0 5.733.333" class="cls-1" data-name="Path 109" transform="translate(-87 932)"/>
        </clipPath>
        <clipPath id="clip-path-5">
            <path id="Path_112" d="M77.459-884.285V-931H63v37.8a48.181 48.181 0 0 0 14.459 8.917" class="cls-1" data-name="Path 112" transform="translate(-63 931)"/>
        </clipPath>
        <clipPath id="clip-path-7">
            <path id="Path_159" d="M51-863.907h91.2V-954H51z" class="cls-1" data-name="Path 159" transform="translate(-51 954)"/>
        </clipPath>
        <clipPath id="clip-path-9">
            <path id="Rectangle_11" d="M0 0h91.205v73.409H0z" class="cls-2" data-name="Rectangle 11"/>
        </clipPath>
        <clipPath id="clip-path-10">
            <path id="Path_115" d="M66-916.663h6.674V-920H66z" class="cls-1" data-name="Path 115" transform="translate(-66 920)"/>
        </clipPath>
        <clipPath id="clip-path-11">
            <path id="Path_114" d="M51-863.907h92.317V-954H51z" class="cls-2" data-name="Path 114" transform="translate(-51 954)"/>
        </clipPath>
        <clipPath id="clip-path-12">
            <path id="Path_118" d="M66-923.663h6.674V-927H66z" class="cls-1" data-name="Path 118" transform="translate(-66 927)"/>
        </clipPath>
        <clipPath id="clip-path-14">
            <path id="Path_121" d="M66-910.663h6.674V-914H66z" class="cls-1" data-name="Path 121" transform="translate(-66 914)"/>
        </clipPath>
        <clipPath id="clip-path-16">
            <path id="Path_124" d="M66-904.663h6.674V-908H66z" class="cls-1" data-name="Path 124" transform="translate(-66 908)"/>
        </clipPath>
        <clipPath id="clip-path-18">
            <path id="Path_127" d="M66-897.663h6.674V-901H66z" class="cls-1" data-name="Path 127" transform="translate(-66 901)"/>
        </clipPath>
        <clipPath id="clip-path-20">
            <path id="Path_130" d="M66-890.663h6.674V-894H66z" class="cls-1" data-name="Path 130" transform="translate(-66 894)"/>
        </clipPath>
        <clipPath id="clip-path-22">
            <path id="Path_133" d="M100.347-924.327a6.674 6.674 0 0 1-6.674 6.674A6.673 6.673 0 0 1 87-924.327 6.672 6.672 0 0 1 93.674-931a6.673 6.673 0 0 1 6.674 6.674" class="cls-1" data-name="Path 133" transform="translate(-87 931)"/>
        </clipPath>
        <clipPath id="clip-path-24">
            <path id="Path_136" d="M117-918.663h2.225V-922H117z" class="cls-1" data-name="Path 136" transform="translate(-117 922)"/>
        </clipPath>
        <clipPath id="clip-path-26">
            <path id="Path_139" d="M117-923.663h2.225V-927H117z" class="cls-1" data-name="Path 139" transform="translate(-117 927)"/>
        </clipPath>
        <clipPath id="clip-path-28">
            <path id="Path_142" d="M117-911.663h2.225V-915H117z" class="cls-1" data-name="Path 142" transform="translate(-117 915)"/>
        </clipPath>
        <clipPath id="clip-path-30">
            <path id="Path_145" d="M117-904.663h2.225V-908H117z" class="cls-1" data-name="Path 145" transform="translate(-117 908)"/>
        </clipPath>
        <clipPath id="clip-path-32">
            <path id="Path_148" d="M117-899.663h2.225V-903H117z" class="cls-1" data-name="Path 148" transform="translate(-117 903)"/>
        </clipPath>
        <clipPath id="clip-path-34">
            <path id="Path_151" d="M117-892.663h2.225V-896H117z" class="cls-1" data-name="Path 151" transform="translate(-117 896)"/>
        </clipPath>
        <clipPath id="clip-path-36">
            <path id="Path_154" d="M96.6-881.635c-22.685 0-41.493-15.313-45.005-35.365a39.117 39.117 0 0 0-.6 6.787c0 23.279 20.418 42.152 45.6 42.152s45.6-18.873 45.6-42.152a39.258 39.258 0 0 0-.6-6.787c-3.512 20.051-22.322 35.365-45.007 35.365" class="cls-1" data-name="Path 154" transform="translate(-51 917)"/>
        </clipPath>
        <clipPath id="clip-path-38">
            <path id="Path_157" d="M69.785-932.883a4.139 4.139 0 0 0-3.265 1.641.8.8 0 0 0 .088 1.075.682.682 0 0 0 .456.181.69.69 0 0 0 .544-.274 2.766 2.766 0 0 1 2.177-1.095 2.768 2.768 0 0 1 2.179 1.095.685.685 0 0 0 .542.274.676.676 0 0 0 .458-.181.8.8 0 0 0 .086-1.075 4.137 4.137 0 0 0-3.265-1.641m0-3.059a6.909 6.909 0 0 0-5.442 2.734.8.8 0 0 0 .089 1.077.678.678 0 0 0 .456.179.688.688 0 0 0 .544-.274 5.53 5.53 0 0 1 4.353-2.187 5.53 5.53 0 0 1 4.354 2.187.684.684 0 0 0 .545.274.673.673 0 0 0 .456-.179.805.805 0 0 0 .088-1.077 6.91 6.91 0 0 0-5.443-2.734m7.62.77a9.676 9.676 0 0 0-7.62-3.828 9.673 9.673 0 0 0-7.619 3.829.8.8 0 0 0 .088 1.076.668.668 0 0 0 .456.181.693.693 0 0 0 .545-.272 8.286 8.286 0 0 1 6.53-3.283 8.29 8.29 0 0 1 6.531 3.281.692.692 0 0 0 .545.274.67.67 0 0 0 .456-.181.8.8 0 0 0 .088-1.076m-7.62 5.347a1.478 1.478 0 0 0-1.421 1.529 1.478 1.478 0 0 0 1.421 1.53 1.478 1.478 0 0 0 1.422-1.53 1.478 1.478 0 0 0-1.422-1.529" class="cls-1" data-name="Path 157" transform="translate(-62 939)"/>
        </clipPath>
    </defs>
    <g id="icon" transform="translate(-56.725 -18.908)">
        <g id="Group_95" class="cls-3" data-name="Group 95" transform="translate(60.062 18.908)">
            <g id="Group_94" class="cls-4" data-name="Group 94" transform="translate(-60.062 -18.908)">
                <path id="Path_104" d="M49-959h95.654v96.766H49z" class="cls-5" data-name="Path 104" transform="translate(5.501 972.347)"/>
            </g>
        </g>
        <g id="Group_97" class="cls-6" data-name="Group 97" transform="translate(96.766 43.378)">
            <g id="Group_96" class="cls-4" data-name="Group 96" transform="translate(-96.766 -43.378)">
                <path id="Path_107" d="M82-937h50.051v62.286H82z" class="cls-7" data-name="Path 107" transform="translate(9.205 974.817)"/>
            </g>
        </g>
        <g id="Group_99" class="cls-8" data-name="Group 99" transform="translate(70.072 44.49)">
            <g id="Group_98" class="cls-4" data-name="Group 98" transform="translate(-70.072 -44.49)">
                <path id="Path_110" d="M58-936h25.582v57.837H58z" class="cls-7" data-name="Path 110" transform="translate(6.511 974.929)"/>
            </g>
        </g>
        <g id="Group_132" class="cls-9" data-name="Group 132" transform="translate(56.725 18.908)">
            <g id="Group_131" class="cls-4" data-name="Group 131" transform="translate(-56.725 -18.908)">
                <g id="Group_130" class="cls-10" data-name="Group 130" transform="translate(56.725 35.592)">
                    <g id="Group_101" class="cls-11" data-name="Group 101" transform="translate(16.684 21.133)">
                        <g id="Group_100" class="cls-12" data-name="Group 100" transform="translate(-16.684 -37.817)">
                            <path id="Path_113" d="M61-925h17.8v14.459H61z" class="cls-5" data-name="Path 113" transform="translate(-49.877 957.255)"/>
                        </g>
                    </g>
                    <g id="Group_103" class="cls-13" data-name="Group 103" transform="translate(16.684 13.347)">
                        <g id="Group_102" class="cls-12" data-name="Group 102" transform="translate(-16.684 -30.031)">
                            <path id="Path_116" d="M61-932h17.8v14.459H61z" class="cls-5" data-name="Path 116" transform="translate(-49.877 956.47)"/>
                        </g>
                    </g>
                    <g id="Group_105" class="cls-14" data-name="Group 105" transform="translate(16.684 27.806)">
                        <g id="Group_104" class="cls-12" data-name="Group 104" transform="translate(-16.684 -44.49)">
                            <path id="Path_119" d="M61-919h17.8v14.459H61z" class="cls-5" data-name="Path 119" transform="translate(-49.877 957.929)"/>
                        </g>
                    </g>
                    <g id="Group_107" class="cls-15" data-name="Group 107" transform="translate(16.684 34.48)">
                        <g id="Group_106" class="cls-12" data-name="Group 106" transform="translate(-16.684 -51.164)">
                            <path id="Path_122" d="M61-913h17.8v14.459H61z" class="cls-5" data-name="Path 122" transform="translate(-49.877 958.603)"/>
                        </g>
                    </g>
                    <g id="Group_109" class="cls-16" data-name="Group 109" transform="translate(16.684 42.266)">
                        <g id="Group_108" class="cls-12" data-name="Group 108" transform="translate(-16.684 -58.95)">
                            <path id="Path_125" d="M61-906h17.8v14.459H61z" class="cls-5" data-name="Path 125" transform="translate(-49.877 959.388)"/>
                        </g>
                    </g>
                    <g id="Group_111" class="cls-17" data-name="Group 111" transform="translate(16.684 50.051)">
                        <g id="Group_110" class="cls-12" data-name="Group 110" transform="translate(-16.684 -66.735)">
                            <path id="Path_128" d="M61-899h17.8v14.459H61z" class="cls-5" data-name="Path 128" transform="translate(-49.877 960.174)"/>
                        </g>
                    </g>
                    <g id="Group_113" class="cls-18" data-name="Group 113" transform="translate(40.041 8.898)">
                        <g id="Group_112" class="cls-12" data-name="Group 112" transform="translate(-40.041 -25.582)">
                            <path id="Path_131" d="M82-936h24.47v24.47H82z" class="cls-19" data-name="Path 131" transform="translate(-47.52 956.021)"/>
                        </g>
                    </g>
                    <g id="Group_115" class="cls-20" data-name="Group 115" transform="translate(73.409 18.908)">
                        <g id="Group_114" class="cls-12" data-name="Group 114" transform="translate(-73.409 -35.592)">
                            <path id="Path_134" d="M112-927h13.347v14.459H112z" class="cls-5" data-name="Path 134" transform="translate(-44.152 957.031)"/>
                        </g>
                    </g>
                    <g id="Group_117" class="cls-21" data-name="Group 117" transform="translate(73.409 13.347)">
                        <g id="Group_116" class="cls-12" data-name="Group 116" transform="translate(-73.409 -30.031)">
                            <path id="Path_137" d="M112-932h13.347v14.459H112z" class="cls-5" data-name="Path 137" transform="translate(-44.152 956.47)"/>
                        </g>
                    </g>
                    <g id="Group_119" class="cls-22" data-name="Group 119" transform="translate(73.409 26.694)">
                        <g id="Group_118" class="cls-12" data-name="Group 118" transform="translate(-73.409 -43.378)">
                            <path id="Path_140" d="M112-920h13.347v14.459H112z" class="cls-5" data-name="Path 140" transform="translate(-44.152 957.817)"/>
                        </g>
                    </g>
                    <g id="Group_121" class="cls-23" data-name="Group 121" transform="translate(73.409 34.48)">
                        <g id="Group_120" class="cls-12" data-name="Group 120" transform="translate(-73.409 -51.164)">
                            <path id="Path_143" d="M112-913h13.347v14.459H112z" class="cls-5" data-name="Path 143" transform="translate(-44.152 958.603)"/>
                        </g>
                    </g>
                    <g id="Group_123" class="cls-24" data-name="Group 123" transform="translate(73.409 40.041)">
                        <g id="Group_122" class="cls-12" data-name="Group 122" transform="translate(-73.409 -56.725)">
                            <path id="Path_146" d="M112-908h13.347v14.459H112z" class="cls-5" data-name="Path 146" transform="translate(-44.152 959.164)"/>
                        </g>
                    </g>
                    <g id="Group_125" class="cls-25" data-name="Group 125" transform="translate(73.409 47.827)">
                        <g id="Group_124" class="cls-12" data-name="Group 124" transform="translate(-73.409 -64.511)">
                            <path id="Path_149" d="M112-901h13.347v14.459H112z" class="cls-5" data-name="Path 149" transform="translate(-44.152 959.95)"/>
                        </g>
                    </g>
                    <g id="Group_127" class="cls-26" data-name="Group 127" transform="translate(0 24.47)">
                        <g id="Group_126" class="cls-12" data-name="Group 126" transform="translate(0 -41.153)">
                            <path id="Path_152" d="M46-922h102.328v60.062H46z" class="cls-27" data-name="Path 152" transform="translate(-51.561 957.592)"/>
                        </g>
                    </g>
                    <g id="Group_129" class="cls-28" data-name="Group 129" transform="translate(12.235)">
                        <g id="Group_128" class="cls-12" data-name="Group 128" transform="translate(-12.235 -16.684)">
                            <path id="Path_155" d="M57-944h26.694v23.357H57z" class="cls-7" data-name="Path 155" transform="translate(-50.326 955.123)"/>
                        </g>
                    </g>
                </g>
            </g>
        </g>
    </g>
</svg>
