<?xml version="1.0"?>
<svg xmlns="http://www.w3.org/2000/svg" height="512px" viewBox="-102 0 512 512" width="512px" class=""><g><path d="m44.136719 17.65625c-24.335938 0-44.136719 19.800781-44.136719 44.136719v26.484375h35.308594v-26.484375c0-4.863281 3.964844-8.828125 8.828125-8.828125h97.105469v-35.308594zm0 0" fill="#556080" data-original="#556080" class="active-path" style="fill:#B0B8CF" data-old_color="#B2BAD2"/><path d="m158.898438 61.792969h35.308593v70.621093h-35.308593zm0 0" fill="#556080" data-original="#556080" class="active-path" style="fill:#B0B8CF" data-old_color="#B2BAD2"/><path d="m132.414062 0h88.277344v70.621094h-88.277344zm0 0" fill="#7383bf" data-original="#7383BF" class="" style="fill:#CCD0E6" data-old_color="#CBCFE5"/><path d="m132.414062 123.585938h88.277344v44.136718h-88.277344zm0 0" fill="#7383bf" data-original="#7383BF" class="" style="fill:#CCD0E6" data-old_color="#CBCFE5"/><path d="m291.292969 512h-229.480469c-9.765625 0-17.675781-7.910156-17.675781-17.671875v-317.757813c0-9.765624 7.910156-17.671874 17.675781-17.671874h229.488281c9.753907 0 17.664063 7.90625 17.664063 17.671874v317.765626c0 9.753906-7.910156 17.664062-17.671875 17.664062zm0 0" fill="#c6e2f7" data-original="#C6E2F7" class=""/><path d="m176.550781 256c-4.871093 0-8.828125-3.945312-8.828125-8.828125v-52.964844c0-4.882812 3.957032-8.828125 8.828125-8.828125 4.875 0 8.828125 3.945313 8.828125 8.828125v52.964844c0 4.882813-3.953125 8.828125-8.828125 8.828125zm0 0" fill="#6b8a99" data-original="#6B8A99" class=""/><path d="m44.136719 247.171875h264.828125v194.207031h-264.828125zm0 0" fill="#f2ecbf" data-original="#F2ECBF" class=""/><path d="m238.34375 344.277344c0 34.125-27.664062 61.792968-61.792969 61.792968-34.125 0-61.792969-27.667968-61.792969-61.792968 0-34.128906 27.667969-61.792969 61.792969-61.792969 34.128907 0 61.792969 27.664063 61.792969 61.792969zm0 0" fill="#fff" data-original="#FFF" class=""/><g fill="#8faec1"><path d="m158.898438 158.898438h35.308593v35.308593h-35.308593zm0 0" data-original="#000000" class=""/><path d="m238.34375 220.691406h-17.652344c-4.875 0-8.828125-3.949218-8.828125-8.828125 0-4.882812 3.953125-8.828125 8.828125-8.828125h17.652344c4.875 0 8.828125 3.945313 8.828125 8.828125 0 4.878907-3.953125 8.828125-8.828125 8.828125zm0 0" data-original="#000000" class=""/><path d="m150.070312 485.515625h-17.65625c-4.875 0-8.828124-3.945313-8.828124-8.824219 0-4.882812 3.953124-8.828125 8.828124-8.828125h17.65625c4.871094 0 8.828126 3.945313 8.828126 8.828125 0 4.878906-3.957032 8.824219-8.828126 8.824219zm0 0" data-original="#000000" class=""/></g><path d="m176.550781 379.585938c-4.871093 0-8.828125-3.945313-8.828125-8.828126v-52.964843c0-4.882813 3.957032-8.828125 8.828125-8.828125 4.875 0 8.828125 3.945312 8.828125 8.828125v52.964843c0 4.882813-3.953125 8.828126-8.828125 8.828126zm0 0" fill="#dd352e" data-original="#DD352E" class=""/><path d="m203.035156 353.101562h-52.964844c-4.875 0-8.828124-3.945312-8.828124-8.824218 0-4.882813 3.953124-8.828125 8.828124-8.828125h52.964844c4.871094 0 8.828125 3.945312 8.828125 8.828125 0 4.878906-3.957031 8.824218-8.828125 8.824218zm0 0" fill="#dd352e" data-original="#DD352E" class=""/><path d="m308.964844 203.035156h-35.308594c-4.875 0-8.828125 3.945313-8.828125 8.828125 0 4.878907 3.953125 8.828125 8.828125 8.828125h35.308594zm0 0" fill="#8faec1" data-original="#8FAEC1" class="" style="fill:#8FAEC1"/><path d="m97.101562 467.863281h-52.964843v17.652344h52.964843c4.875 0 8.828126-3.945313 8.828126-8.824219 0-4.882812-3.953126-8.828125-8.828126-8.828125zm0 0" fill="#8faec1" data-original="#8FAEC1" class="" style="fill:#8FAEC1"/></g> </svg>
