<?xml version="1.0"?>
<svg xmlns="http://www.w3.org/2000/svg" height="512px" viewBox="0 0 512 512" width="512px" class=""><g><path d="m0 0h512v512h-512z" fill="#4bb9ec" data-original="#4BB9EC" class="" style="fill:#FFFFFF" data-old_color="#ffffff"/><path d="m256 0h256v512h-256zm0 0" fill="#00a0d8" data-original="#00A0D8" class="" style="fill:#FFFFFF" data-old_color="#ffffff"/><path d="m301 376h90v75h-90zm0 0" fill="#c6e2e7" data-original="#C6E2E7" class="active-path" style="fill:#495456" data-old_color="#C6E2E7"/><path d="m391 121h60v90h-60zm0 0" fill="#c6e2e7" data-original="#C6E2E7" class="active-path" style="fill:#495456" data-old_color="#C6E2E7"/><path d="m121 376h90v75h-90zm0 0" fill="#deecf1" data-original="#DEECF1" class="" style="fill:#495456" data-old_color="#4A5557"/><path d="m61 121h60v90h-60zm0 0" fill="#deecf1" data-original="#DEECF1" class="" style="fill:#495456" data-old_color="#4A5557"/><path d="m106 76h300v180h-300zm0 0" fill="#4bb9ec" data-original="#4BB9EC" class="" style="fill:#FFFFFF" data-old_color="#ffffff"/><path d="m256 76h150v180h-150zm0 0" fill="#00a0d8" data-original="#00A0D8" class="" style="fill:#FFFFFF" data-old_color="#ffffff"/><path d="m91 61v180l55.199219 30h206.398437l68.402344-30v-180zm300 180h-270v-150h270zm0 0" fill="#deecf1" data-original="#DEECF1" class="" style="fill:#495456" data-old_color="#4A5557"/><path d="m421 61v180l-68.402344 30h-96.597656v-30h135v-150h-135v-30" fill="#c6e2e7" data-original="#C6E2E7" class="active-path" style="fill:#495456" data-old_color="#C6E2E7"/><path d="m91 241v150h330v-150zm0 0" fill="#deecf1" data-original="#DEECF1" class="" style="fill:#495456" data-old_color="#4A5557"/><path d="m256 241h165v150h-165zm0 0" fill="#c6e2e7" data-original="#C6E2E7" class="active-path" style="fill:#495456" data-old_color="#C6E2E7"/><path d="m151 301h60v30h-60zm0 0" fill="#4bb9ec" data-original="#4BB9EC" class="" style="fill:#FFFFFF" data-old_color="#ffffff"/><path d="m301 301h60v30h-60zm0 0" fill="#00a0d8" data-original="#00A0D8" class="" style="fill:#FFFFFF" data-old_color="#ffffff"/></g> </svg>
